<?xml version="1.0" encoding="utf-8"?>
<!-- Generator: Adobe Illustrator 21.1.0, SVG Export Plug-In . SVG Version: 6.00 Build 0)  -->
<svg version="1.1" id="Capa_1" xmlns="http://www.w3.org/2000/svg" xmlns:xlink="http://www.w3.org/1999/xlink" x="0px" y="0px"
	 viewBox="0 0 512 512" style="enable-background:new 0 0 512 512;" xml:space="preserve">
<style type="text/css">
	.st0{fill:#CCCCCC;}
	.st1{fill:#666666;}
</style>
<g>
	<g>
		<g id="check-circle-blank">
			<path class="st0" d="M256,0C115.2,0,0,115.2,0,256s115.2,256,256,256s256-115.2,256-256S396.8,0,256,0z"/>
		</g>
	</g>
	<g id="layer1">
		<path class="st1" d="M150.3,383.5c-6.5-1.5-12.5-5.6-16.9-11.3c-6.6-8.7-6.4-3.9-6.1-118.3c0.3-83.1,0.6-104.2,1.7-107.4
			c0.8-2.5,3.7-6.4,7.5-10.1c10-10.1,1-9.4,119.6-9.4c118.8,0,109.7-0.7,119.7,9.5c4.2,4.3,6.6,7.6,7.5,10.6
			c1.9,6.3,1.9,210.3,0,216.6c-2.8,9.2-12,17.6-21.9,19.9C353.1,385.5,158.4,385.5,150.3,383.5z M349.4,351.9c1.4-0.6,3-2.2,3.6-3.6
			c0.8-1.6,1.1-19.1,1.1-56.8V237h-9.6c-9.6,0-9.6,0-9,2.4c9.4,37.4-11.8,77.4-48.6,91.6c-10.7,4.2-24.2,6.4-35,5.7
			c-12.1-0.8-20.7-3.1-32.7-8.9c-9.3-4.4-11.5-6.1-20.1-14.7c-13-12.9-19.2-23.8-22.4-39.3c-1.9-9.4-2-23.3-0.2-31l1.3-5.8H168h-9.9
			v55.5v55.6l2.5,2.4l2.4,2.5h92C320.3,353,347.7,352.7,349.4,351.9z M272.6,300.8c20.3-6.8,33.5-24.6,33.5-45.2
			c-0.1-13.5-4-23.2-13.2-33.2c-16.5-17.6-44.7-20.6-65.4-6.8c-16.1,10.7-24.2,30.7-20,49.6C213.8,293.5,244.4,310.3,272.6,300.8z
			 M348.5,203.9c4.6-2.1,5.6-6.2,5.6-22.7c0-8.3-0.4-16.2-1-17.6c-0.5-1.4-2.4-3.5-4.2-4.6c-2.9-1.8-5.1-2-18.9-2
			c-8.6,0-17,0.5-18.7,1.1c-5.7,2-6.2,4-6.2,23.1c0,18.6,0.5,20.9,5.4,22.8C313.7,205.3,345.6,205.2,348.5,203.9z"/>
	</g>
</g>
</svg>
