<?xml version="1.0" encoding="utf-8"?>
<!-- Generator: Adobe Illustrator 21.1.0, SVG Export Plug-In . SVG Version: 6.00 Build 0)  -->
<svg version="1.1" id="Capa_1" xmlns="http://www.w3.org/2000/svg" xmlns:xlink="http://www.w3.org/1999/xlink" x="0px" y="0px"
	 viewBox="0 0 512 512" style="enable-background:new 0 0 512 512;" xml:space="preserve">
<style type="text/css">
	.st0{fill:#CCCCCC;}
	.st1{fill:#666666;}
</style>
<g>
	<g>
		<g id="check-circle-blank">
			<path class="st0" d="M256,0C115.2,0,0,115.2,0,256s115.2,256,256,256s256-115.2,256-256S396.8,0,256,0z"/>
		</g>
	</g>
	<g id="layer1">
		<path class="st1" d="M154.4,301.9c0-45.9-0.5-103.9-1.2-129l-1-45.9H217c71.5,0,87,1.5,100.3,9.3c10.1,5.9,19.1,15.3,23.1,24.5
			c4.9,10.6,5.9,35.2,2.2,46.9c-3.9,11.3-12,23.3-19.7,29l-6.6,4.6l10.8,5.4c12.6,6.2,26.8,20.4,29.7,29.8c3.2,10.1,4,39.8,1.7,51.8
			c-4,19.6-19.1,37.1-41.1,47.4c-16.7,7.9-34.1,9.4-104.7,9.4h-58.2v-83.2H154.4z M275.6,327.7c9.9-5.6,14.2-12.8,14-24.5
			c0-11.8-4-18.4-13.8-23.3c-6.4-3.2-11-3.9-30.7-4.2l-23.3-0.7v29v29l23.3-0.7C266,331.9,268.9,331.6,275.6,327.7z M261.6,221.4
			c11.5-5.7,15.5-19.4,9.3-31.7c-4.6-8.9-9.9-11-30.9-11.8l-18.2-0.7V201v23.8h16.4C251.2,224.8,255.9,224.1,261.6,221.4z"/>
	</g>
</g>
</svg>
